<svg xmlns="http://www.w3.org/2000/svg" viewBox="0 0 65 56"><g>
<g><path d="M28.578 19.531c-1.096 0-1.984-.874-1.984-1.953 0-.68.352-1.277.887-1.627L39.553 3.957l.004.004.669-.7 23.856 23.766c.552.35.918.962.918 1.66a1.977 1.977 0 0 1-1.984 1.97 1.986 1.986 0 0 1-1.373-.548l-.024.025L40.242 8.84 29.995 19.02l-.037-.038c-.357.34-.844.55-1.38.55zm10.254-1.877h1.989v5.23h-3.979v-3.269c0-1.083.89-1.961 1.99-1.961zm4.642 0c1.098 0 1.99.878 1.99 1.961v3.27h-3.98v-5.231h1.99zm-6.632 5.884h3.979v5.231h-1.99c-1.098 0-1.989-.878-1.989-1.961zm4.642 0h3.98v3.27c0 1.083-.892 1.961-1.99 1.961h-1.99zM34.19 0h2.652v4.453l-2.652 2.74z"/></g>
<g><path d="M31.875 56C20.027 56 10.389 46.744 10.1 35.219h3.808c.146 9.43 8.015 17.03 17.701 17.03 9.687 0 17.556-7.6 17.701-17.03h4.34C53.36 46.744 43.723 56 31.875 56z"/></g>
<g><path d="M7.375 33H4.937v-2.273H0l3.85-5.682H1.643l4.517-6.818 4.517 6.818H8.47l3.85 5.682H7.375z"/></g>
<g><path d="M19.938 33h-4.063v-4.687H13.37l-2.098-4.257L14.14 20.5h-3.612l4.928-6.25h-2.24L17.92 8l4.704 6.25h-2.24l4.928 6.25H21.7l6.3 7.813h-8.062z"/></g></g>
</svg>