<svg xmlns="http://www.w3.org/2000/svg" width="25" height="29" viewBox="0 0 25 29"><defs><mask id="b" width="2" height="2" x="-1" y="-1"><path fill="#fff" d="M1 0h23v27H1z"/><path d="M21.859 25.932c-2.059 1.255-4.32 1.05-6.632 1.05-2.893 0-5.837-.159-8.727.003-7.024.395-5.321-9.149-5.321-13.447C1.179 9.064-.352.208 6.55.075c3.668 0 7.381-.187 11.043.011 2.097.114 5.157.446 5.76 2.862.502 2.01.634 4.195.633 6.262l-.003 9.084c-.001 2.607.522 6.023-2.125 7.638zm-.468-10.871c0-2.477.082-4.957-.061-7.432-.069-1.191-.093-2.426-.383-3.589-.27-1.081-1.474-1.189-2.482-1.272-.91-.075-1.811.003-2.721.003H6.55c-2.41 0-2.635 2.082-2.635 3.983v10.488c0 1.926-.906 6.7 1.776 7.155 2.311.39 4.868.037 7.199.037 1.983 0 5.447.648 7.301-.484 2.197-1.34 1.199-6.769 1.199-8.89zM7.96 8.834c-1.672 0-1.672-2.548 0-2.548h8.719c1.673 0 1.673 2.548 0 2.548H7.96zm8.573 7.773c-.707 0-1.297-.58-1.297-1.274 0-.694.59-1.274 1.297-1.274h.293c.707 0 1.297.58 1.297 1.274 0 .695-.59 1.274-1.297 1.274h-.293zm-4.104 0c-.706 0-1.297-.58-1.297-1.274 0-.694.59-1.274 1.297-1.274h.293c.708 0 1.297.58 1.297 1.274 0 .695-.59 1.274-1.297 1.274h-.293zm-4.067 0c-.707 0-1.297-.58-1.297-1.274 0-.694.59-1.274 1.297-1.274h.293c.707 0 1.297.58 1.297 1.274 0 .695-.59 1.274-1.297 1.274h-.293zm8.171 4.606c-.707 0-1.297-.58-1.297-1.274 0-.695.59-1.274 1.297-1.274h.293c.707 0 1.297.579 1.297 1.274 0 .694-.59 1.274-1.297 1.274h-.293zm-4.104 0c-.706 0-1.297-.58-1.297-1.274 0-.695.59-1.274 1.297-1.274h.293c.708 0 1.297.579 1.297 1.274 0 .694-.59 1.274-1.297 1.274h-.293zm-4.067 0c-.707 0-1.297-.58-1.297-1.274 0-.695.59-1.274 1.297-1.274h.293c.707 0 1.297.579 1.297 1.274 0 .694-.59 1.274-1.297 1.274h-.293z"/></mask><filter id="a" width="45" height="50" x="-10" y="-11" filterUnits="userSpaceOnUse"><feOffset dy="1" in="SourceGraphic" result="FeOffset1106Out"/><feGaussianBlur in="FeOffset1106Out" result="FeGaussianBlur1107Out" stdDeviation="0.4 0.4"/></filter></defs><g filter="url(#a)"><path fill="none" d="M21.859 25.932c-2.059 1.255-4.32 1.05-6.632 1.05-2.893 0-5.837-.159-8.727.003-7.024.395-5.321-9.149-5.321-13.447C1.179 9.064-.352.208 6.55.075c3.668 0 7.381-.187 11.043.011 2.097.114 5.157.446 5.76 2.862.502 2.01.634 4.195.633 6.262l-.003 9.084c-.001 2.607.522 6.023-2.125 7.638zm-.468-10.871c0-2.477.082-4.957-.061-7.432-.069-1.191-.093-2.426-.383-3.589-.27-1.081-1.474-1.189-2.482-1.272-.91-.075-1.811.003-2.721.003H6.55c-2.41 0-2.635 2.082-2.635 3.983v10.488c0 1.926-.906 6.7 1.776 7.155 2.311.39 4.868.037 7.199.037 1.983 0 5.447.648 7.301-.484 2.197-1.34 1.199-6.769 1.199-8.89zM7.96 8.834c-1.672 0-1.672-2.548 0-2.548h8.719c1.673 0 1.673 2.548 0 2.548H7.96zm8.573 7.773c-.707 0-1.297-.58-1.297-1.274 0-.694.59-1.274 1.297-1.274h.293c.707 0 1.297.58 1.297 1.274 0 .695-.59 1.274-1.297 1.274h-.293zm-4.104 0c-.706 0-1.297-.58-1.297-1.274 0-.694.59-1.274 1.297-1.274h.293c.708 0 1.297.58 1.297 1.274 0 .695-.59 1.274-1.297 1.274h-.293zm-4.067 0c-.707 0-1.297-.58-1.297-1.274 0-.694.59-1.274 1.297-1.274h.293c.707 0 1.297.58 1.297 1.274 0 .695-.59 1.274-1.297 1.274h-.293zm8.171 4.606c-.707 0-1.297-.58-1.297-1.274 0-.695.59-1.274 1.297-1.274h.293c.707 0 1.297.579 1.297 1.274 0 .694-.59 1.274-1.297 1.274h-.293zm-4.104 0c-.706 0-1.297-.58-1.297-1.274 0-.695.59-1.274 1.297-1.274h.293c.708 0 1.297.579 1.297 1.274 0 .694-.59 1.274-1.297 1.274h-.293zm-4.067 0c-.707 0-1.297-.58-1.297-1.274 0-.695.59-1.274 1.297-1.274h.293c.707 0 1.297.579 1.297 1.274 0 .694-.59 1.274-1.297 1.274h-.293z" mask="url(&quot;#b&quot;)"/><path fill="#4c3f00" fill-opacity=".31" d="M21.859 25.932c-2.059 1.255-4.32 1.05-6.632 1.05-2.893 0-5.837-.159-8.727.003-7.024.395-5.321-9.149-5.321-13.447C1.179 9.064-.352.208 6.55.075c3.668 0 7.381-.187 11.043.011 2.097.114 5.157.446 5.76 2.862.502 2.01.634 4.195.633 6.262l-.003 9.084c-.001 2.607.522 6.023-2.125 7.638zm-.468-10.871c0-2.477.082-4.957-.061-7.432-.069-1.191-.093-2.426-.383-3.589-.27-1.081-1.474-1.189-2.482-1.272-.91-.075-1.811.003-2.721.003H6.55c-2.41 0-2.635 2.082-2.635 3.983v10.488c0 1.926-.906 6.7 1.776 7.155 2.311.39 4.868.037 7.199.037 1.983 0 5.447.648 7.301-.484 2.197-1.34 1.199-6.769 1.199-8.89zM7.96 8.834c-1.672 0-1.672-2.548 0-2.548h8.719c1.673 0 1.673 2.548 0 2.548H7.96zm8.573 7.773c-.707 0-1.297-.58-1.297-1.274 0-.694.59-1.274 1.297-1.274h.293c.707 0 1.297.58 1.297 1.274 0 .695-.59 1.274-1.297 1.274h-.293zm-4.104 0c-.706 0-1.297-.58-1.297-1.274 0-.694.59-1.274 1.297-1.274h.293c.708 0 1.297.58 1.297 1.274 0 .695-.59 1.274-1.297 1.274h-.293zm-4.067 0c-.707 0-1.297-.58-1.297-1.274 0-.694.59-1.274 1.297-1.274h.293c.707 0 1.297.58 1.297 1.274 0 .695-.59 1.274-1.297 1.274h-.293zm8.171 4.606c-.707 0-1.297-.58-1.297-1.274 0-.695.59-1.274 1.297-1.274h.293c.707 0 1.297.579 1.297 1.274 0 .694-.59 1.274-1.297 1.274h-.293zm-4.104 0c-.706 0-1.297-.58-1.297-1.274 0-.695.59-1.274 1.297-1.274h.293c.708 0 1.297.579 1.297 1.274 0 .694-.59 1.274-1.297 1.274h-.293zm-4.067 0c-.707 0-1.297-.58-1.297-1.274 0-.695.59-1.274 1.297-1.274h.293c.707 0 1.297.579 1.297 1.274 0 .694-.59 1.274-1.297 1.274h-.293z"/></g><path fill="#fff" d="M21.859 25.932c-2.059 1.255-4.32 1.05-6.632 1.05-2.893 0-5.837-.159-8.727.003-7.024.395-5.321-9.149-5.321-13.447C1.179 9.064-.352.208 6.55.075c3.668 0 7.381-.187 11.043.011 2.097.114 5.157.446 5.76 2.862.502 2.01.634 4.195.633 6.262l-.003 9.084c-.001 2.607.522 6.023-2.125 7.638zm-.468-10.871c0-2.477.082-4.957-.061-7.432-.069-1.191-.093-2.426-.383-3.589-.27-1.081-1.474-1.189-2.482-1.272-.91-.075-1.811.003-2.721.003H6.55c-2.41 0-2.635 2.082-2.635 3.983v10.488c0 1.926-.906 6.7 1.776 7.155 2.311.39 4.868.037 7.199.037 1.983 0 5.447.648 7.301-.484 2.197-1.34 1.199-6.769 1.199-8.89zM7.96 8.834c-1.672 0-1.672-2.548 0-2.548h8.719c1.673 0 1.673 2.548 0 2.548H7.96zm8.573 7.773c-.707 0-1.297-.58-1.297-1.274 0-.694.59-1.274 1.297-1.274h.293c.707 0 1.297.58 1.297 1.274 0 .695-.59 1.274-1.297 1.274h-.293zm-4.104 0c-.706 0-1.297-.58-1.297-1.274 0-.694.59-1.274 1.297-1.274h.293c.708 0 1.297.58 1.297 1.274 0 .695-.59 1.274-1.297 1.274h-.293zm-4.067 0c-.707 0-1.297-.58-1.297-1.274 0-.694.59-1.274 1.297-1.274h.293c.707 0 1.297.58 1.297 1.274 0 .695-.59 1.274-1.297 1.274h-.293zm8.171 4.606c-.707 0-1.297-.58-1.297-1.274 0-.695.59-1.274 1.297-1.274h.293c.707 0 1.297.579 1.297 1.274 0 .694-.59 1.274-1.297 1.274h-.293zm-4.104 0c-.706 0-1.297-.58-1.297-1.274 0-.695.59-1.274 1.297-1.274h.293c.708 0 1.297.579 1.297 1.274 0 .694-.59 1.274-1.297 1.274h-.293zm-4.067 0c-.707 0-1.297-.58-1.297-1.274 0-.695.59-1.274 1.297-1.274h.293c.707 0 1.297.579 1.297 1.274 0 .694-.59 1.274-1.297 1.274h-.293z"/></svg>