<svg xmlns="http://www.w3.org/2000/svg" width="32" height="32" viewBox="0 0 32 32"><defs><mask id="b" width="2" height="2" x="-1" y="-1"><path fill="#fff" d="M1 0h30v30H1z"/><path d="M16 0C7.729 0 1 6.73 1 15s6.729 15 15 15c1.359 0 2.705-.181 4.13-.586a6.605 6.605 0 0 0 3.762-7.498l.03-.03c.439-.437.636-1.281.44-1.871l-.084-.256c-.197-.59-.85-1.205-1.45-1.37l-2.217-.606c-.6-.163-1.458.057-1.9.498l-.801.802a8.518 8.518 0 0 1-5.99-5.99l.802-.803c.44-.44.66-1.296.497-1.899l-.605-2.217c-.163-.6-.781-1.253-1.371-1.45l-.253-.085c-.591-.197-1.435.002-1.875.443l-1.2 1.202c-.215.212-.352.822-.352.824a14.191 14.191 0 0 0 4.149 10.18 14.178 14.178 0 0 0 10.146 4.148c.009 0 .148-.031.312-.08.012 1.843-1.034 3.566-2.669 4.297a13.158 13.158 0 0 1-3.501.472C8.764 28.125 2.875 22.236 2.875 15S8.764 1.875 16 1.875 29.125 7.764 29.125 15c0 2.157-.513 4.22-1.525 6.13a.939.939 0 0 0 1.657.88A15.03 15.03 0 0 0 31 15c0-8.27-6.729-15-15-15z"/></mask><filter id="a" width="52" height="53" x="-10" y="-11" filterUnits="userSpaceOnUse"><feOffset dy="1" in="SourceGraphic" result="FeOffset1086Out"/><feGaussianBlur in="FeOffset1086Out" result="FeGaussianBlur1087Out" stdDeviation="0.4 0.4"/></filter></defs><g filter="url(#a)"><path fill="none" d="M16 0C7.729 0 1 6.73 1 15s6.729 15 15 15c1.359 0 2.705-.181 4.13-.586a6.605 6.605 0 0 0 3.762-7.498l.03-.03c.439-.437.636-1.281.44-1.871l-.084-.256c-.197-.59-.85-1.205-1.45-1.37l-2.217-.606c-.6-.163-1.458.057-1.9.498l-.801.802a8.518 8.518 0 0 1-5.99-5.99l.802-.803c.44-.44.66-1.296.497-1.899l-.605-2.217c-.163-.6-.781-1.253-1.371-1.45l-.253-.085c-.591-.197-1.435.002-1.875.443l-1.2 1.202c-.215.212-.352.822-.352.824a14.191 14.191 0 0 0 4.149 10.18 14.178 14.178 0 0 0 10.146 4.148c.009 0 .148-.031.312-.08.012 1.843-1.034 3.566-2.669 4.297a13.158 13.158 0 0 1-3.501.472C8.764 28.125 2.875 22.236 2.875 15S8.764 1.875 16 1.875 29.125 7.764 29.125 15c0 2.157-.513 4.22-1.525 6.13a.939.939 0 0 0 1.657.88A15.03 15.03 0 0 0 31 15c0-8.27-6.729-15-15-15z" mask="url(&quot;#b&quot;)"/><path fill="#4c3f00" fill-opacity=".31" d="M16 0C7.729 0 1 6.73 1 15s6.729 15 15 15c1.359 0 2.705-.181 4.13-.586a6.605 6.605 0 0 0 3.762-7.498l.03-.03c.439-.437.636-1.281.44-1.871l-.084-.256c-.197-.59-.85-1.205-1.45-1.37l-2.217-.606c-.6-.163-1.458.057-1.9.498l-.801.802a8.518 8.518 0 0 1-5.99-5.99l.802-.803c.44-.44.66-1.296.497-1.899l-.605-2.217c-.163-.6-.781-1.253-1.371-1.45l-.253-.085c-.591-.197-1.435.002-1.875.443l-1.2 1.202c-.215.212-.352.822-.352.824a14.191 14.191 0 0 0 4.149 10.18 14.178 14.178 0 0 0 10.146 4.148c.009 0 .148-.031.312-.08.012 1.843-1.034 3.566-2.669 4.297a13.158 13.158 0 0 1-3.501.472C8.764 28.125 2.875 22.236 2.875 15S8.764 1.875 16 1.875 29.125 7.764 29.125 15c0 2.157-.513 4.22-1.525 6.13a.939.939 0 0 0 1.657.88A15.03 15.03 0 0 0 31 15c0-8.27-6.729-15-15-15z"/></g><path fill="#fff" d="M16 0C7.729 0 1 6.73 1 15s6.729 15 15 15c1.359 0 2.705-.181 4.13-.586a6.605 6.605 0 0 0 3.762-7.498l.03-.03c.439-.437.636-1.281.44-1.871l-.084-.256c-.197-.59-.85-1.205-1.45-1.37l-2.217-.606c-.6-.163-1.458.057-1.9.498l-.801.802a8.518 8.518 0 0 1-5.99-5.99l.802-.803c.44-.44.66-1.296.497-1.899l-.605-2.217c-.163-.6-.781-1.253-1.371-1.45l-.253-.085c-.591-.197-1.435.002-1.875.443l-1.2 1.202c-.215.212-.352.822-.352.824a14.191 14.191 0 0 0 4.149 10.18 14.178 14.178 0 0 0 10.146 4.148c.009 0 .148-.031.312-.08.012 1.843-1.034 3.566-2.669 4.297a13.158 13.158 0 0 1-3.501.472C8.764 28.125 2.875 22.236 2.875 15S8.764 1.875 16 1.875 29.125 7.764 29.125 15c0 2.157-.513 4.22-1.525 6.13a.939.939 0 0 0 1.657.88A15.03 15.03 0 0 0 31 15c0-8.27-6.729-15-15-15z"/></svg>