<svg xmlns="http://www.w3.org/2000/svg" width="33" height="28" viewBox="0 0 33 28"><defs><mask id="b" width="2" height="2" x="-1" y="-1"><path fill="#fff" d="M1 0h31v26H1z"/><path d="M32 10.859c0 3.119-1.381 6.081-3.745 8.131v1.727c0 2.264-1.496 3.295-2.886 3.295-.6 0-1.516-.193-2.46-1.11l-1.244-1.211a11.2 11.2 0 0 1-4.663-.68l-.322.38a8.901 8.901 0 0 1-7.16 3.141l-.364.355c-.944.918-1.86 1.111-2.46 1.111-1.39 0-2.885-1.031-2.885-3.295v-.51A8.619 8.619 0 0 1 1 15.854c0-4.79 3.973-8.686 8.857-8.686.065 0 .128.002.192.006l.462.009C12.051 2.998 16.14 0 20.928 0 27.032 0 31.999 4.871 32 10.86zm-17.025 9.148c-3.074-1.932-5.117-5.31-5.118-9.148 0-.515.04-1.02.11-1.515-.037 0-.073-.006-.11-.006-3.669 0-6.643 2.917-6.643 6.515 0 2.198 1.112 4.136 2.81 5.316v1.534c0 1.194.708 1.483 1.573.642l1.11-1.08a6.682 6.682 0 0 0 6.267-2.258z"/></mask><filter id="a" width="53" height="49" x="-10" y="-11" filterUnits="userSpaceOnUse"><feOffset dy="1" in="SourceGraphic" result="FeOffset1126Out"/><feGaussianBlur in="FeOffset1126Out" result="FeGaussianBlur1127Out" stdDeviation="0.4 0.4"/></filter></defs><g filter="url(#a)"><path fill="none" d="M32 10.859c0 3.119-1.381 6.081-3.745 8.131v1.727c0 2.264-1.496 3.295-2.886 3.295-.6 0-1.516-.193-2.46-1.11l-1.244-1.211a11.2 11.2 0 0 1-4.663-.68l-.322.38a8.901 8.901 0 0 1-7.16 3.141l-.364.355c-.944.918-1.86 1.111-2.46 1.111-1.39 0-2.885-1.031-2.885-3.295v-.51A8.619 8.619 0 0 1 1 15.854c0-4.79 3.973-8.686 8.857-8.686.065 0 .128.002.192.006l.462.009C12.051 2.998 16.14 0 20.928 0 27.032 0 31.999 4.871 32 10.86zm-17.025 9.148c-3.074-1.932-5.117-5.31-5.118-9.148 0-.515.04-1.02.11-1.515-.037 0-.073-.006-.11-.006-3.669 0-6.643 2.917-6.643 6.515 0 2.198 1.112 4.136 2.81 5.316v1.534c0 1.194.708 1.483 1.573.642l1.11-1.08a6.682 6.682 0 0 0 6.267-2.258z" mask="url(&quot;#b&quot;)"/><path fill="#4c3f00" fill-opacity=".31" d="M32 10.859c0 3.119-1.381 6.081-3.745 8.131v1.727c0 2.264-1.496 3.295-2.886 3.295-.6 0-1.516-.193-2.46-1.11l-1.244-1.211a11.2 11.2 0 0 1-4.663-.68l-.322.38a8.901 8.901 0 0 1-7.16 3.141l-.364.355c-.944.918-1.86 1.111-2.46 1.111-1.39 0-2.885-1.031-2.885-3.295v-.51A8.619 8.619 0 0 1 1 15.854c0-4.79 3.973-8.686 8.857-8.686.065 0 .128.002.192.006l.462.009C12.051 2.998 16.14 0 20.928 0 27.032 0 31.999 4.871 32 10.86zm-17.025 9.148c-3.074-1.932-5.117-5.31-5.118-9.148 0-.515.04-1.02.11-1.515-.037 0-.073-.006-.11-.006-3.669 0-6.643 2.917-6.643 6.515 0 2.198 1.112 4.136 2.81 5.316v1.534c0 1.194.708 1.483 1.573.642l1.11-1.08a6.682 6.682 0 0 0 6.267-2.258z"/></g><path fill="#fff" d="M32 10.859c0 3.119-1.381 6.081-3.745 8.131v1.727c0 2.264-1.496 3.295-2.886 3.295-.6 0-1.516-.193-2.46-1.11l-1.244-1.211a11.2 11.2 0 0 1-4.663-.68l-.322.38a8.901 8.901 0 0 1-7.16 3.141l-.364.355c-.944.918-1.86 1.111-2.46 1.111-1.39 0-2.885-1.031-2.885-3.295v-.51A8.619 8.619 0 0 1 1 15.854c0-4.79 3.973-8.686 8.857-8.686.065 0 .128.002.192.006l.462.009C12.051 2.998 16.14 0 20.928 0 27.032 0 31.999 4.871 32 10.86zm-17.025 9.148c-3.074-1.932-5.117-5.31-5.118-9.148 0-.515.04-1.02.11-1.515-.037 0-.073-.006-.11-.006-3.669 0-6.643 2.917-6.643 6.515 0 2.198 1.112 4.136 2.81 5.316v1.534c0 1.194.708 1.483 1.573.642l1.11-1.08a6.682 6.682 0 0 0 6.267-2.258z"/><g><path fill="#fadb44" d="M16 9a2 2 0 1 1 0 4 2 2 0 0 1 0-4zm5 0a2 2 0 1 1 0 4 2 2 0 0 1 0-4zm5 0a2 2 0 1 1 0 4 2 2 0 0 1 0-4z"/></g></svg>