<svg xmlns="http://www.w3.org/2000/svg" viewBox="0 0 62 60">
<g>
	<g>
		<path d="M11.375 5.24c.627-1.852 2.785-3.564 2.785-3.564s.672 2.682.046 4.534a5.488 5.488 0 0 1-.263.638c.204-.084.417-.159.64-.22 1.876-.51 4.492.337 4.492.337s-1.836 2.059-3.711 2.57c-1.827.496-3.572-.065-3.77-.494-.404-.293-.814-2.04-.219-3.802zm5.207-.7c-.259-.406.563-2.282 2.326-3.415C20.67-.008 23.628.014 23.628.014s-1.226 2.708-2.988 3.841c-1.763 1.132-3.8 1.093-4.058.686zM5.835 11.923C6.185 9.78 8.236 7.51 8.236 7.51s1.222 2.812.873 4.953a6.457 6.457 0 0 1-.172.748c.208-.13.427-.251.66-.359 1.961-.903 4.978-.457 4.978-.457s-1.636 2.59-3.596 3.494c-1.908.879-3.919.586-4.215.153-.495-.246-1.262-2.084-.929-4.12zm-4.222 8.214c-.279-2.575 1.36-5.845 1.36-5.845s2.298 2.84 2.576 5.414c.033.31.045.615.04.912a7.25 7.25 0 0 1 .645-.621c1.967-1.67 5.578-2.126 5.578-2.126s-1.059 3.503-3.026 5.173c-1.915 1.625-4.32 1.935-4.798 1.53-.648-.121-2.112-1.988-2.375-4.437zm-.884 9.42C-.367 27.3.125 23.805.125 23.805s3.091 1.854 4.187 4.108c.106.218.194.438.274.657.13-.296.28-.593.459-.885 1.32-2.144 4.586-3.708 4.586-3.708s.133 3.526-1.187 5.67c-1.113 1.807-2.89 2.833-3.727 2.938-.065.115-.137.198-.213.233-.535.244-2.68-1.007-3.775-3.262zm2.59 9.609C1.56 37.438.79 34.027.79 34.027s3.41.684 5.17 2.41c.17.167.325.342.473.518.013-.318.045-.645.105-.976C6.977 33.545 9.36 31 9.36 31s1.339 3.227.899 5.662c-.37 2.05-1.607 3.6-2.32 3.977-.019.129-.055.23-.11.288-.394.406-2.748-.036-4.51-1.761zm9.136 7.996c-.27.398-2.495.495-4.46-.54-1.965-1.034-3.394-3.595-3.394-3.595s3.233-.107 5.198.927c.194.103.37.216.544.33a5.078 5.078 0 0 1-.12-.803c-.124-2.016 1.487-4.493 1.487-4.493s1.905 2.308 2.03 4.325c.104 1.704-.686 3.165-1.251 3.595.011.107.005.197-.034.254zm3.088 5.211c-1.777-.316-3.643-2.07-3.643-2.07s2.352-1 4.129-.682c.175.031.34.078.505.125a5.112 5.112 0 0 1-.342-.643c-.73-1.661-.327-4.197-.327-4.197s2.137 1.405 2.867 3.067c.617 1.404.497 2.856.217 3.377.042.086.065.165.055.223-.073.41-1.684 1.119-3.46.8zm9.804.97c.047.386-1.283 1.449-3.062 1.643-1.779.194-4.049-.865-4.049-.865s1.952-1.521 3.731-1.715c.176-.02.347-.023.516-.026a4.968 4.968 0 0 1-.507-.48c-1.164-1.283-1.498-3.65-1.498-3.65s2.428.679 3.592 1.961c.984 1.085 1.28 2.41 1.161 2.95.064.064.11.127.116.183zm17.6-46.376s2.617-.847 4.492-.337c.223.061.436.136.64.22a5.411 5.411 0 0 1-.263-.639c-.626-1.851.045-4.533.045-4.533s2.16 1.712 2.785 3.563c.596 1.76.186 3.508-.218 3.8-.199.43-1.944.99-3.77.494-1.876-.51-3.711-2.568-3.711-2.568zM38.394.014s2.957-.022 4.72 1.111c1.762 1.133 2.584 3.009 2.326 3.416-.259.407-2.295.447-4.058-.686C39.62 2.722 38.394.014 38.394.014zm14.03 12.838c.233.108.453.23.661.359-.07-.24-.13-.49-.172-.748-.35-2.141.872-4.953.872-4.953s2.051 2.27 2.401 4.412c.334 2.036-.433 3.874-.928 4.12-.296.433-2.307.727-4.215-.153-1.96-.904-3.596-3.494-3.596-3.494s3.016-.446 4.978.457zm4.01 7.765a7.522 7.522 0 0 1 .04-.912c.279-2.575 2.576-5.414 2.576-5.414s1.639 3.27 1.36 5.845c-.263 2.448-1.727 4.315-2.375 4.438-.478.404-2.883.094-4.799-1.531-1.967-1.67-3.026-5.173-3.026-5.173s3.611.457 5.578 2.126c.233.197.448.406.646.621zm4.859 8.939c-1.095 2.255-3.241 3.507-3.775 3.262-.077-.035-.148-.118-.214-.233-.837-.105-2.614-1.131-3.727-2.938-1.32-2.144-1.186-5.67-1.186-5.67s3.265 1.564 4.586 3.708c.18.292.33.589.459.885.08-.22.168-.439.274-.657 1.096-2.254 4.187-4.108 4.187-4.108s.491 3.496-.604 5.75zm-5.23 6.88c1.76-1.726 5.17-2.41 5.17-2.41s-.77 3.412-2.531 5.138c-1.762 1.726-4.115 2.168-4.508 1.762-.057-.059-.092-.16-.11-.289-.714-.378-1.95-1.926-2.321-3.978-.439-2.433.898-5.662.898-5.662s2.384 2.547 2.824 4.981c.06.332.092.657.105.975.147-.176.301-.349.472-.516zm1.358 6.59s-1.43 2.562-3.394 3.597c-1.966 1.034-4.19.936-4.46.538-.039-.057-.046-.147-.035-.254-.563-.43-1.355-1.891-1.25-3.595.124-2.017 2.03-4.325 2.03-4.325s1.61 2.477 1.486 4.493a5 5 0 0 1-.119.803c.174-.114.35-.227.544-.33 1.965-1.034 5.198-.926 5.198-.926zm-7.298 7.278s-1.866 1.753-3.643 2.07c-1.777.318-3.39-.39-3.462-.802-.01-.058.014-.135.055-.222-.28-.521-.4-1.974.218-3.378.73-1.662 2.867-3.067 2.867-3.067s.402 2.537-.328 4.198c-.1.23-.217.442-.342.642.164-.046.331-.093.506-.124 1.777-.318 4.129.683 4.129.683zm-10.069 2.1c1.779.194 3.731 1.715 3.731 1.715s-2.268 1.06-4.048.866c-1.779-.195-3.11-1.258-3.062-1.643.007-.055.051-.118.116-.184-.12-.54.177-1.864 1.16-2.948 1.165-1.283 3.593-1.96 3.593-1.96s-.334 2.365-1.498 3.649a5.147 5.147 0 0 1-.507.48c.17.002.34.006.515.025zM19.988 20.865v-4.56c0-.794.148-1.46.443-2 .295-.54.693-.98 1.196-1.322a5.168 5.168 0 0 1 1.736-.744 9.005 9.005 0 0 1 2.065-.231c.72 0 1.409.077 2.064.23a5.173 5.173 0 0 1 1.737.745c.502.341.901.782 1.196 1.322.295.54.442 1.206.442 2v.99c0 1.103-.153 2.155-.458 3.157a16.339 16.339 0 0 1-1.164 2.843c-.47.892-.972 1.751-1.507 2.577-.536.827-1.038 1.62-1.507 2.38-.47.76-.858 1.493-1.164 2.198-.306.705-.459 1.388-.459 2.05h6.26v3.503h-10.88v-4.859c0-.705.153-1.399.459-2.082a13.63 13.63 0 0 1 1.163-2.066c.47-.694.972-1.41 1.508-2.148a28.01 28.01 0 0 0 1.507-2.314c.47-.804.857-1.657 1.163-2.561a9.015 9.015 0 0 0 .459-2.909c0-.33-.044-.672-.131-1.024-.088-.352-.317-.529-.688-.529-.372 0-.601.177-.688.529a4.246 4.246 0 0 0-.132 1.024v3.801zm12.124 0v-4.56c0-.794.148-1.46.443-2 .295-.54.693-.98 1.196-1.322a5.169 5.169 0 0 1 1.736-.744 9.006 9.006 0 0 1 2.065-.231c.72 0 1.409.077 2.064.23a5.172 5.172 0 0 1 1.737.745c.502.341.901.782 1.196 1.322.295.54.442 1.206.442 2v.99c0 1.103-.153 2.155-.458 3.157a16.321 16.321 0 0 1-1.164 2.843c-.47.892-.972 1.751-1.507 2.577-.535.827-1.038 1.62-1.507 2.38-.47.76-.858 1.493-1.163 2.198-.307.705-.46 1.388-.46 2.05h6.26v3.503h-10.88v-4.859c0-.705.153-1.399.46-2.082a13.63 13.63 0 0 1 1.162-2.066 80.3 80.3 0 0 1 1.508-2.148 27.978 27.978 0 0 0 1.507-2.314c.47-.804.857-1.657 1.163-2.561a9.015 9.015 0 0 0 .46-2.909c0-.33-.045-.672-.132-1.024-.088-.352-.317-.529-.688-.529-.372 0-.601.177-.688.529a4.246 4.246 0 0 0-.131 1.024v3.801zM20.028 43.048v-2.505c0-.528-.014-1.141-.03-1.371h1.989c.5 0 .839-.023 1.067-.039v1.012a11.91 11.91 0 0 0-1.067-.031h-.891v2.934c0 .521.015 1.134.03 1.372h-1.127c.015-.238.03-.85.03-1.372zm6.33-3.976c1.532 0 2.687 1.218 2.687 2.72 0 1.502-1.155 2.72-2.687 2.72-1.516 0-2.68-1.218-2.68-2.72 0-1.502 1.164-2.72 2.68-2.72zm0 4.505c.906 0 1.613-.797 1.613-1.785 0-.988-.707-1.785-1.613-1.785-.905 0-1.605.797-1.605 1.785 0 .988.7 1.785 1.605 1.785zm8.597 2.42h-.913l.051-1.577h-3.342l.015 1.578h-.928l-.155-2.513c.148.015.405.015.634.015.117-.245.22-.475.36-.796l1.576-3.709h.316l1.554 3.709c.118.275.243.551.368.796.287 0 .508 0 .655-.015zm-2.592-5.07l-.971 2.573h1.928zm7.316 3.493a10.687 10.687 0 0 0-.25-.652l-.229-.567h-1.752l-.228.544c-.11.269-.184.468-.25.675h-1.127c.184-.337.383-.72.567-1.165l1.826-4.175h.294l1.878 4.175c.198.437.42.85.596 1.165zm-1.355-3.425l-.523 1.31h1.046zM31 53.983L34.017 57 31 60.017 27.983 57z"/>
	</g>
</g>
</svg>