<svg xmlns="http://www.w3.org/2000/svg" width="27" height="27" viewBox="0 0 27 27"><g><g><path fill="#ff9000" d="M3.378 0h20.243c1.598 0 2.892 1.32 2.892 2.947V23.58c0 1.628-1.294 2.947-2.892 2.947H3.378c-1.597 0-2.892-1.32-2.892-2.947V2.947C.486 1.32 1.781 0 3.378 0zm15.906 16.035c0-.746-.558-1.35-1.247-1.35-.22 0-.415.078-.594.186-.02.008-.028-.01-.05.006-.836.564-2.37 1.497-3.898 1.497-1.566 0-3.083-.946-3.876-1.49-.022-.015-.026.006-.044 0a1.146 1.146 0 0 0-.612-.2c-.689 0-1.247.605-1.247 1.351 0 .47.236.865.572 1.106.013.02.023.039.051.057.778.53 2.387 1.453 4.105 1.755L8.951 22.74c-.232.245-.38.585-.38.964 0 .745.558 1.348 1.244 1.348.34 0 .646-.149.87-.388l.004.005 2.786-3.02 2.785 3.02.004-.005c.225.24.53.388.87.388.687 0 1.244-.603 1.244-1.348 0-.38-.147-.72-.38-.964l-3.483-3.777c1.758-.294 3.394-1.247 4.17-1.779.019-.013.01-.027.023-.04.339-.242.576-.637.576-1.109zm-.004-7.187c0-3.26-2.588-5.9-5.78-5.9s-5.78 2.64-5.78 5.9c0 3.258 2.588 5.9 5.78 5.9s5.78-2.642 5.78-5.9zm-2.77 0c0 1.697-1.347 3.073-3.01 3.073-1.663 0-3.01-1.376-3.01-3.073 0-1.698 1.347-3.074 3.01-3.074 1.663 0 3.01 1.376 3.01 3.074z"/></g></g></svg>