<svg xmlns="http://www.w3.org/2000/svg" viewBox="0 0 12.03 12.031"><path d="M10.75 9.374l-.06-.134c-.19-.442-2.47-1.111-2.65-1.125l-.15.013a3.258 3.258 0 0 0-1.17.83.366.366 0 0 1-.43.054 10.537 10.537 0 0 1-2.21-1.861 8.546 8.546 0 0 1-1.43-2.29.4.4 0 0 1 .11-.415 2.481 2.481 0 0 0 .99-1.232c.01-.188-.38-2.557-.79-2.785l-.12-.08a1.494 1.494 0 0 0-1.1-.335 1.3 1.3 0 0 0-.31.12A4 4 0 0 0 .08 1.486a9.632 9.632 0 0 0 2.49 7.351 8.57 8.57 0 0 0 6.66 3.173h.01l.04-.014a3.969 3.969 0 0 0 1.5-1.192 1.3 1.3 0 0 0-.03-1.43zM9.03 3.031h3v2h-3v-2zm-3.28 1L9.03 1.34v5.382z"/></svg>