<svg xmlns="http://www.w3.org/2000/svg" width="12" height="12" viewBox="0 0 12 12"><path d="M1.4 1.434a4.71 4.71 0 0 1 6.78 0 5.011 5.011 0 0 1 0 6.954 4.71 4.71 0 0 1-6.78 0 5.011 5.011 0 0 1 0-6.954zM2.65 2.72a2.965 2.965 0 0 1 4.27 0 3.155 3.155 0 0 1 0 4.383 2.965 2.965 0 0 1-4.27 0 3.155 3.155 0 0 1 0-4.383zm7.22 7.091a1.2 1.2 0 0 1 1.7.158 1.263 1.263 0 0 1 .15 1.739 1.187 1.187 0 0 1-1.69-.158 1.274 1.274 0 0 1-.16-1.739zM7.25 8.705L8.8 7.124l2.54 2.608-1.54 1.581z" fill="#445569" fill-rule="evenodd" opacity=".5"/></svg>