<svg xmlns="http://www.w3.org/2000/svg" viewBox="0 0 12 12"><g><g><path fill="#a4a8b6" d="M10.75 10.776c-.225.281-.808.937-1.496 1.192l-.04.013h-.013c-.503.107-3.905-.027-6.659-3.173C-.238 5.634-.145 1.872.054 1.457.384.8 1.113.292 1.404.105c.092-.054.198-.094.304-.121.437-.094.834.16 1.1.335l.118.08c.41.228.808 2.598.795 2.785-.027.321-.318.616-.993 1.232-.106.107-.16.268-.106.415.291.763.913 1.714 1.43 2.29.476.535 1.43 1.419 2.21 1.86.146.081.305.054.424-.053.595-.522.9-.776 1.178-.83l.146-.013c.185.013 2.462.683 2.647 1.124l.066.134c.16.335.437.937.027 1.433zM12 3v2H9v1.691L5.721 4 9 1.309V3z"/></g></g></svg>