<svg xmlns="http://www.w3.org/2000/svg" width="13" height="11" viewBox="0 0 13 11"><g><g><path fill="#a4a8b6" d="M12.747 9.85c-.37-.725-2.176-1.203-3.376-1.653-1.2-.45-1.036-.722-1.08-1.095a2.244 2.244 0 0 1-.012-.161c.412-.31.749-.733.967-1.222l.015-.033a3.27 3.27 0 0 0 .122-.33c.275-.047.435-.301.496-.536.062-.095.19-.33.161-.595-.038-.343-.2-.5-.383-.567v-.06c0-.435-.048-1.062-.142-1.475a2.178 2.178 0 0 0-.09-.34c-.177-.505-.547-.96-1.043-1.278C7.871.175 7.148.002 6.506.002c-.642 0-1.365.174-1.876.503-.496.319-.866.773-1.043 1.278-.04.112-.07.227-.09.34-.094.412-.142 1.04-.142 1.476v.054c-.188.063-.358.22-.397.571-.03.266.099.5.16.596.063.239.228.498.512.538.035.114.077.225.123.333l.01.02.004.01c.222.497.568.927.99 1.237-.003.05-.006.098-.012.144-.043.372.083.645-1.117 1.095-1.2.45-3.006.928-3.376 1.652-.37.724-.222 1.15-.222 1.15h12.938s.149-.426-.221-1.15z"/></g></g></svg>