<svg xmlns="http://www.w3.org/2000/svg" width="26" height="27" viewBox="0 0 26 27"><g><g><path fill="#4ca5e7" d="M2.892 0h20.243c1.597 0 2.892 1.32 2.892 2.947V23.58c0 1.628-1.295 2.947-2.892 2.947H2.892C1.295 26.526 0 25.206 0 23.58V2.947C0 1.32 1.295 0 2.892 0zm16.44 13.74c-.605-.59-1.41-.98-2.416-1.172v-.08c.7-.263 1.248-.676 1.645-1.236.398-.56.597-1.2.597-1.92 0-.619-.145-1.167-.432-1.642-.289-.474-.724-.853-1.307-1.138a5.636 5.636 0 0 0-1.734-.519c-.616-.082-1.522-.123-2.717-.123H7.215v14.73h6.518c1.13 0 2.062-.092 2.794-.277a5.977 5.977 0 0 0 2.018-.93c.518-.363.93-.82 1.236-1.375.306-.554.46-1.196.46-1.93 0-1.001-.303-1.798-.909-2.388zm-4.516-2.815c-.124.245-.35.436-.678.575a2.566 2.566 0 0 1-.87.207c-.28.013-.77.02-1.47.02h-.515V8.61h.285c.729 0 1.277.005 1.646.016.368.01.687.067.957.173.284.112.493.293.628.544.135.25.203.494.203.732 0 .323-.062.606-.186.85zm.957 6.09c-.172.28-.443.493-.815.637a3.765 3.765 0 0 1-1.247.268c-.408.013-1.144.02-2.209.02h-.219v-3.69h.755c.73 0 1.31.005 1.744.015.434.01.775.057 1.023.143.408.132.714.326.918.583.205.257.307.614.307 1.069 0 .356-.086.674-.257.954z"/></g></g></svg>