<svg xmlns="http://www.w3.org/2000/svg" width="60" height="58" viewBox="0 0 60 58"><g>
<g><path d="M17.988 26.865v-4.56c0-.794.148-1.46.443-2 .295-.54.693-.98 1.196-1.322a5.168 5.168 0 0 1 1.736-.744 9.005 9.005 0 0 1 2.065-.231c.72 0 1.409.077 2.064.23a5.173 5.173 0 0 1 1.737.745c.502.341.901.782 1.196 1.322.295.54.442 1.206.442 2v.99c0 1.103-.153 2.155-.458 3.157a16.339 16.339 0 0 1-1.164 2.843c-.47.892-.972 1.751-1.507 2.578-.536.826-1.038 1.619-1.507 2.38-.47.76-.858 1.492-1.164 2.197-.306.705-.459 1.388-.459 2.05h6.26v3.503h-10.88v-4.859c0-.705.153-1.399.459-2.082a13.63 13.63 0 0 1 1.163-2.066c.47-.694.972-1.41 1.508-2.148a28.01 28.01 0 0 0 1.507-2.314c.47-.804.857-1.657 1.163-2.561a9.015 9.015 0 0 0 .459-2.909c0-.33-.044-.671-.131-1.024-.088-.352-.317-.529-.688-.529-.372 0-.601.177-.688.529a4.246 4.246 0 0 0-.132 1.024v3.801z"/></g>
<g><path d="M41.972 36.613c0 .857-.144 1.622-.434 2.295a5.04 5.04 0 0 1-1.178 1.709 4.842 4.842 0 0 1-1.738 1.046c-.664.233-1.37.35-2.119.35a6.48 6.48 0 0 1-2.156-.35 4.842 4.842 0 0 1-1.738-1.046 5.04 5.04 0 0 1-1.177-1.709c-.29-.673-.435-1.438-.435-2.295V23.479c0-.857.145-1.629.435-2.314a5.012 5.012 0 0 1 1.177-1.727 5.083 5.083 0 0 1 1.738-1.065 6.192 6.192 0 0 1 2.156-.368c1.618 0 2.934.478 3.948 1.433 1.014.955 1.521 2.302 1.521 4.04zm-3.899-13.318c0-.49-.15-.875-.45-1.157-.302-.281-.681-.423-1.138-.423-.482 0-.879.142-1.191.423-.314.282-.47.667-.47 1.157v13.428c0 .49.156.876.47 1.157.312.282.71.422 1.19.422.458 0 .837-.14 1.138-.422.3-.281.451-.667.451-1.157z"/></g>
<g><path d="M55.027 19.76L47.9 12.692V6.804h7.127zm4.352 11.543c-.82.812-2.33.812-3.149 0l-.525-.52v25.649c0 .65-.917 1.56-1.573 1.56H54V58H5v-.074c-.595-.22-1.241-.949-1.241-1.494v-25.13c-.82.814-2.33.814-3.149 0-.82-.812-.82-2.309 0-3.12L28.42.604c.82-.813 2.329-.813 3.15 0l27.809 27.576c.819.813.819 2.31 0 3.122zm-6.842-3.988L37.701 11.599l-8.193-6.59L6.83 27.507c-.432.802-.828 1.622-.828 1.939V55.32c0 .212-.054.451-.108.68h47.105a1.304 1.304 0 0 1-.005-.122V28.887c0-.298-.213-.936-.457-1.572z"/></g>
<g><path d="M23.826 46.425a149.31 149.31 0 0 0-1.593 3.598c-.143.336-.278.656-.376.942h-.85c.215-.337.447-.824.644-1.278l2.13-4.674h.161l2.13 4.674c.215.454.448.941.672 1.278h-.958c-.09-.27-.242-.64-.412-1.051-.51-1.169-1.029-2.304-1.548-3.489zm5.293-.656v1.833h.707c.609 0 1.119-.008 1.396-.025v.622a27.67 27.67 0 0 0-1.396-.025h-.707v2.219h.787c.618 0 1.244-.008 1.513-.025v.622a32.602 32.602 0 0 0-1.513-.025h-1.548c.018-.463.036-1.127.036-1.505v-2.758c0-.58-.018-1.244-.036-1.496h1.477c.617 0 1.235-.017 1.512-.034v.631c-.277-.025-.895-.034-1.512-.034zm7.342-.563c.617 0 1.27-.008 1.548-.025v.622c-.278-.017-.93-.034-1.548-.034h-.627c-.009.311-.009.74-.009 1.085v2.606c0 .571.009 1.244.036 1.505h-.797c.018-.261.027-.934.027-1.505v-2.606c0-.345-.009-.774-.027-1.085h-.617c-.609 0-1.253.017-1.53.034v-.622c.277.017.921.025 1.53.025z"/>
<path fill="none" stroke-linecap="round" stroke-linejoin="round" stroke-miterlimit="50" d="M23.826 46.425a149.31 149.31 0 0 0-1.593 3.598c-.143.336-.278.656-.376.942h-.85c.215-.337.447-.824.644-1.278l2.13-4.674h.161l2.13 4.674c.215.454.448.941.672 1.278h-.958c-.09-.27-.242-.64-.412-1.051-.51-1.169-1.029-2.304-1.548-3.489zm5.293-.656v1.833h.707c.609 0 1.119-.008 1.396-.025v.622a27.67 27.67 0 0 0-1.396-.025h-.707v2.219h.787c.618 0 1.244-.008 1.513-.025v.622a32.602 32.602 0 0 0-1.513-.025h-1.548c.018-.463.036-1.127.036-1.505v-2.758c0-.58-.018-1.244-.036-1.496h1.477c.617 0 1.235-.017 1.512-.034v.631c-.277-.025-.895-.034-1.512-.034zm7.342-.563c.617 0 1.27-.008 1.548-.025v.622c-.278-.017-.93-.034-1.548-.034h-.627c-.009.311-.009.74-.009 1.085v2.606c0 .571.009 1.244.036 1.505h-.797c.018-.261.027-.934.027-1.505v-2.606c0-.345-.009-.774-.027-1.085h-.617c-.609 0-1.253.017-1.53.034v-.622c.277.017.921.025 1.53.025z"/></g></g></svg>