<?xml version="1.0" encoding="UTF-8"?>
<!DOCTYPE svg PUBLIC "-//W3C//DTD SVG 1.1//EN" "http://www.w3.org/Graphics/SVG/1.1/DTD/svg11.dtd">
<svg xmlns="http://www.w3.org/2000/svg">
	<defs>
		<mask id="calculator-b" width="2" height="2" x="-1" y="-1">
			<path fill="#fff" d="M1 0h23v27H1z"/>
			<path d="M21.859 25.932c-2.059 1.255-4.32 1.05-6.632 1.05-2.893 0-5.837-.159-8.727.003-7.024.395-5.321-9.149-5.321-13.447C1.179 9.064-.352.208 6.55.075c3.668 0 7.381-.187 11.043.011 2.097.114 5.157.446 5.76 2.862.502 2.01.634 4.195.633 6.262l-.003 9.084c-.001 2.607.522 6.023-2.125 7.638zm-.468-10.871c0-2.477.082-4.957-.061-7.432-.069-1.191-.093-2.426-.383-3.589-.27-1.081-1.474-1.189-2.482-1.272-.91-.075-1.811.003-2.721.003H6.55c-2.41 0-2.635 2.082-2.635 3.983v10.488c0 1.926-.906 6.7 1.776 7.155 2.311.39 4.868.037 7.199.037 1.983 0 5.447.648 7.301-.484 2.197-1.34 1.199-6.769 1.199-8.89zM7.96 8.834c-1.672 0-1.672-2.548 0-2.548h8.719c1.673 0 1.673 2.548 0 2.548H7.96zm8.573 7.773c-.707 0-1.297-.58-1.297-1.274 0-.694.59-1.274 1.297-1.274h.293c.707 0 1.297.58 1.297 1.274 0 .695-.59 1.274-1.297 1.274h-.293zm-4.104 0c-.706 0-1.297-.58-1.297-1.274 0-.694.59-1.274 1.297-1.274h.293c.708 0 1.297.58 1.297 1.274 0 .695-.59 1.274-1.297 1.274h-.293zm-4.067 0c-.707 0-1.297-.58-1.297-1.274 0-.694.59-1.274 1.297-1.274h.293c.707 0 1.297.58 1.297 1.274 0 .695-.59 1.274-1.297 1.274h-.293zm8.171 4.606c-.707 0-1.297-.58-1.297-1.274 0-.695.59-1.274 1.297-1.274h.293c.707 0 1.297.579 1.297 1.274 0 .694-.59 1.274-1.297 1.274h-.293zm-4.104 0c-.706 0-1.297-.58-1.297-1.274 0-.695.59-1.274 1.297-1.274h.293c.708 0 1.297.579 1.297 1.274 0 .694-.59 1.274-1.297 1.274h-.293zm-4.067 0c-.707 0-1.297-.58-1.297-1.274 0-.695.59-1.274 1.297-1.274h.293c.707 0 1.297.579 1.297 1.274 0 .694-.59 1.274-1.297 1.274h-.293z"/>
		</mask>
		<filter id="calculator-a" width="45" height="50" x="-10" y="-11" filterUnits="userSpaceOnUse">
			<feOffset dy="1" in="SourceGraphic" result="FeOffset1106Out"/>
			<feGaussianBlur in="FeOffset1106Out" result="FeGaussianBlur1107Out" stdDeviation="0.4 0.4"/>
		</filter>

		<mask id="call-b" width="2" height="2" x="-1" y="-1">
			<path fill="#fff" d="M1 0h30v30H1z"/>
			<path d="M16 0C7.729 0 1 6.73 1 15s6.729 15 15 15c1.359 0 2.705-.181 4.13-.586a6.605 6.605 0 0 0 3.762-7.498l.03-.03c.439-.437.636-1.281.44-1.871l-.084-.256c-.197-.59-.85-1.205-1.45-1.37l-2.217-.606c-.6-.163-1.458.057-1.9.498l-.801.802a8.518 8.518 0 0 1-5.99-5.99l.802-.803c.44-.44.66-1.296.497-1.899l-.605-2.217c-.163-.6-.781-1.253-1.371-1.45l-.253-.085c-.591-.197-1.435.002-1.875.443l-1.2 1.202c-.215.212-.352.822-.352.824a14.191 14.191 0 0 0 4.149 10.18 14.178 14.178 0 0 0 10.146 4.148c.009 0 .148-.031.312-.08.012 1.843-1.034 3.566-2.669 4.297a13.158 13.158 0 0 1-3.501.472C8.764 28.125 2.875 22.236 2.875 15S8.764 1.875 16 1.875 29.125 7.764 29.125 15c0 2.157-.513 4.22-1.525 6.13a.939.939 0 0 0 1.657.88A15.03 15.03 0 0 0 31 15c0-8.27-6.729-15-15-15z"/>
		</mask>
		<filter id="call-a" width="52" height="53" x="-10" y="-11" filterUnits="userSpaceOnUse">
			<feOffset dy="1" in="SourceGraphic" result="FeOffset1086Out"/>
			<feGaussianBlur in="FeOffset1086Out" result="FeGaussianBlur1087Out" stdDeviation="0.4 0.4"/>
		</filter>

		<mask id="chat-b" width="2" height="2" x="-1" y="-1">
			<path fill="#fff" d="M1 0h31v26H1z"/>
			<path d="M32 10.859c0 3.119-1.381 6.081-3.745 8.131v1.727c0 2.264-1.496 3.295-2.886 3.295-.6 0-1.516-.193-2.46-1.11l-1.244-1.211a11.2 11.2 0 0 1-4.663-.68l-.322.38a8.901 8.901 0 0 1-7.16 3.141l-.364.355c-.944.918-1.86 1.111-2.46 1.111-1.39 0-2.885-1.031-2.885-3.295v-.51A8.619 8.619 0 0 1 1 15.854c0-4.79 3.973-8.686 8.857-8.686.065 0 .128.002.192.006l.462.009C12.051 2.998 16.14 0 20.928 0 27.032 0 31.999 4.871 32 10.86zm-17.025 9.148c-3.074-1.932-5.117-5.31-5.118-9.148 0-.515.04-1.02.11-1.515-.037 0-.073-.006-.11-.006-3.669 0-6.643 2.917-6.643 6.515 0 2.198 1.112 4.136 2.81 5.316v1.534c0 1.194.708 1.483 1.573.642l1.11-1.08a6.682 6.682 0 0 0 6.267-2.258z"/>
		</mask>
		<filter id="chat-a" width="53" height="49" x="-10" y="-11" filterUnits="userSpaceOnUse">
			<feOffset dy="1" in="SourceGraphic" result="FeOffset1126Out"/>
			<feGaussianBlur in="FeOffset1126Out" result="FeGaussianBlur1127Out" stdDeviation="0.4 0.4"/>
		</filter>
	</defs>
	<symbol id="all_inclusive" viewBox="0 0 65 56">
		<path d="M28.578 19.531c-1.096 0-1.984-.874-1.984-1.953 0-.68.352-1.277.887-1.627L39.553 3.957l.004.004.669-.7 23.856 23.766c.552.35.918.962.918 1.66a1.977 1.977 0 0 1-1.984 1.97 1.986 1.986 0 0 1-1.373-.548l-.024.025L40.242 8.84 29.995 19.02l-.037-.038c-.357.34-.844.55-1.38.55zm10.254-1.877h1.989v5.23h-3.979v-3.269c0-1.083.89-1.961 1.99-1.961zm4.642 0c1.098 0 1.99.878 1.99 1.961v3.27h-3.98v-5.231h1.99zm-6.632 5.884h3.979v5.231h-1.99c-1.098 0-1.989-.878-1.989-1.961zm4.642 0h3.98v3.27c0 1.083-.892 1.961-1.99 1.961h-1.99zM34.19 0h2.652v4.453l-2.652 2.74zM31.875 56C20.027 56 10.389 46.744 10.1 35.219h3.808c.146 9.43 8.015 17.03 17.701 17.03 9.687 0 17.556-7.6 17.701-17.03h4.34C53.36 46.744 43.723 56 31.875 56zM7.375 33H4.937v-2.273H0l3.85-5.682H1.643l4.517-6.818 4.517 6.818H8.47l3.85 5.682H7.375zM19.938 33h-4.063v-4.687H13.37l-2.098-4.257L14.14 20.5h-3.612l4.928-6.25h-2.24L17.92 8l4.704 6.25h-2.24l4.928 6.25H21.7l6.3 7.813h-8.062z"/>
	</symbol>
	<symbol id="arrow" viewBox="0 0 23 23">
		<g clip-path="url(#clip-3654)">
			<path fill="#fadb44" d="M11.5 0C17.851 0 23 5.149 23 11.5S17.851 23 11.5 23 0 17.851 0 11.5 5.149 0 11.5 0zM2 11.5a9.5 9.5 0 0 0 9.5 9.5A9.5 9.5 0 1 0 2 11.5zM7 10h6V8l2.667 2H16v.25l1 .75-1 .75V12h-.333L13 14v-2H7z"/>
		</g>
	</symbol>
	<symbol id="arrow_slider" viewBox="0 0 7 12">
		<path fill="#a4a8b6" d="M6.689.326a1.16 1.16 0 0 1 0 1.618l-3.97 4.047 3.97 4.047a1.16 1.16 0 0 1 0 1.618 1.108 1.108 0 0 1-1.588 0L.337 6.8a1.16 1.16 0 0 1 0-1.618 1.12 1.12 0 0 1 .503-.297c.05-.188.146-.365.291-.513L5.101.326a1.108 1.108 0 0 1 1.588 0z"/>
	</symbol>
	<symbol id="calculator" viewBox="0 0 25 29">

		<g filter="url(#calculator-a)">
			<path fill="none" d="M21.859 25.932c-2.059 1.255-4.32 1.05-6.632 1.05-2.893 0-5.837-.159-8.727.003-7.024.395-5.321-9.149-5.321-13.447C1.179 9.064-.352.208 6.55.075c3.668 0 7.381-.187 11.043.011 2.097.114 5.157.446 5.76 2.862.502 2.01.634 4.195.633 6.262l-.003 9.084c-.001 2.607.522 6.023-2.125 7.638zm-.468-10.871c0-2.477.082-4.957-.061-7.432-.069-1.191-.093-2.426-.383-3.589-.27-1.081-1.474-1.189-2.482-1.272-.91-.075-1.811.003-2.721.003H6.55c-2.41 0-2.635 2.082-2.635 3.983v10.488c0 1.926-.906 6.7 1.776 7.155 2.311.39 4.868.037 7.199.037 1.983 0 5.447.648 7.301-.484 2.197-1.34 1.199-6.769 1.199-8.89zM7.96 8.834c-1.672 0-1.672-2.548 0-2.548h8.719c1.673 0 1.673 2.548 0 2.548H7.96zm8.573 7.773c-.707 0-1.297-.58-1.297-1.274 0-.694.59-1.274 1.297-1.274h.293c.707 0 1.297.58 1.297 1.274 0 .695-.59 1.274-1.297 1.274h-.293zm-4.104 0c-.706 0-1.297-.58-1.297-1.274 0-.694.59-1.274 1.297-1.274h.293c.708 0 1.297.58 1.297 1.274 0 .695-.59 1.274-1.297 1.274h-.293zm-4.067 0c-.707 0-1.297-.58-1.297-1.274 0-.694.59-1.274 1.297-1.274h.293c.707 0 1.297.58 1.297 1.274 0 .695-.59 1.274-1.297 1.274h-.293zm8.171 4.606c-.707 0-1.297-.58-1.297-1.274 0-.695.59-1.274 1.297-1.274h.293c.707 0 1.297.579 1.297 1.274 0 .694-.59 1.274-1.297 1.274h-.293zm-4.104 0c-.706 0-1.297-.58-1.297-1.274 0-.695.59-1.274 1.297-1.274h.293c.708 0 1.297.579 1.297 1.274 0 .694-.59 1.274-1.297 1.274h-.293zm-4.067 0c-.707 0-1.297-.58-1.297-1.274 0-.695.59-1.274 1.297-1.274h.293c.707 0 1.297.579 1.297 1.274 0 .694-.59 1.274-1.297 1.274h-.293z" mask="url(&quot;#calculator-b&quot;)"/>
			<path fill="#4c3f00" fill-opacity=".31" d="M21.859 25.932c-2.059 1.255-4.32 1.05-6.632 1.05-2.893 0-5.837-.159-8.727.003-7.024.395-5.321-9.149-5.321-13.447C1.179 9.064-.352.208 6.55.075c3.668 0 7.381-.187 11.043.011 2.097.114 5.157.446 5.76 2.862.502 2.01.634 4.195.633 6.262l-.003 9.084c-.001 2.607.522 6.023-2.125 7.638zm-.468-10.871c0-2.477.082-4.957-.061-7.432-.069-1.191-.093-2.426-.383-3.589-.27-1.081-1.474-1.189-2.482-1.272-.91-.075-1.811.003-2.721.003H6.55c-2.41 0-2.635 2.082-2.635 3.983v10.488c0 1.926-.906 6.7 1.776 7.155 2.311.39 4.868.037 7.199.037 1.983 0 5.447.648 7.301-.484 2.197-1.34 1.199-6.769 1.199-8.89zM7.96 8.834c-1.672 0-1.672-2.548 0-2.548h8.719c1.673 0 1.673 2.548 0 2.548H7.96zm8.573 7.773c-.707 0-1.297-.58-1.297-1.274 0-.694.59-1.274 1.297-1.274h.293c.707 0 1.297.58 1.297 1.274 0 .695-.59 1.274-1.297 1.274h-.293zm-4.104 0c-.706 0-1.297-.58-1.297-1.274 0-.694.59-1.274 1.297-1.274h.293c.708 0 1.297.58 1.297 1.274 0 .695-.59 1.274-1.297 1.274h-.293zm-4.067 0c-.707 0-1.297-.58-1.297-1.274 0-.694.59-1.274 1.297-1.274h.293c.707 0 1.297.58 1.297 1.274 0 .695-.59 1.274-1.297 1.274h-.293zm8.171 4.606c-.707 0-1.297-.58-1.297-1.274 0-.695.59-1.274 1.297-1.274h.293c.707 0 1.297.579 1.297 1.274 0 .694-.59 1.274-1.297 1.274h-.293zm-4.104 0c-.706 0-1.297-.58-1.297-1.274 0-.695.59-1.274 1.297-1.274h.293c.708 0 1.297.579 1.297 1.274 0 .694-.59 1.274-1.297 1.274h-.293zm-4.067 0c-.707 0-1.297-.58-1.297-1.274 0-.695.59-1.274 1.297-1.274h.293c.707 0 1.297.579 1.297 1.274 0 .694-.59 1.274-1.297 1.274h-.293z"/>
		</g>
		<path fill="#fff" d="M21.859 25.932c-2.059 1.255-4.32 1.05-6.632 1.05-2.893 0-5.837-.159-8.727.003-7.024.395-5.321-9.149-5.321-13.447C1.179 9.064-.352.208 6.55.075c3.668 0 7.381-.187 11.043.011 2.097.114 5.157.446 5.76 2.862.502 2.01.634 4.195.633 6.262l-.003 9.084c-.001 2.607.522 6.023-2.125 7.638zm-.468-10.871c0-2.477.082-4.957-.061-7.432-.069-1.191-.093-2.426-.383-3.589-.27-1.081-1.474-1.189-2.482-1.272-.91-.075-1.811.003-2.721.003H6.55c-2.41 0-2.635 2.082-2.635 3.983v10.488c0 1.926-.906 6.7 1.776 7.155 2.311.39 4.868.037 7.199.037 1.983 0 5.447.648 7.301-.484 2.197-1.34 1.199-6.769 1.199-8.89zM7.96 8.834c-1.672 0-1.672-2.548 0-2.548h8.719c1.673 0 1.673 2.548 0 2.548H7.96zm8.573 7.773c-.707 0-1.297-.58-1.297-1.274 0-.694.59-1.274 1.297-1.274h.293c.707 0 1.297.58 1.297 1.274 0 .695-.59 1.274-1.297 1.274h-.293zm-4.104 0c-.706 0-1.297-.58-1.297-1.274 0-.694.59-1.274 1.297-1.274h.293c.708 0 1.297.58 1.297 1.274 0 .695-.59 1.274-1.297 1.274h-.293zm-4.067 0c-.707 0-1.297-.58-1.297-1.274 0-.694.59-1.274 1.297-1.274h.293c.707 0 1.297.58 1.297 1.274 0 .695-.59 1.274-1.297 1.274h-.293zm8.171 4.606c-.707 0-1.297-.58-1.297-1.274 0-.695.59-1.274 1.297-1.274h.293c.707 0 1.297.579 1.297 1.274 0 .694-.59 1.274-1.297 1.274h-.293zm-4.104 0c-.706 0-1.297-.58-1.297-1.274 0-.695.59-1.274 1.297-1.274h.293c.708 0 1.297.579 1.297 1.274 0 .694-.59 1.274-1.297 1.274h-.293zm-4.067 0c-.707 0-1.297-.58-1.297-1.274 0-.695.59-1.274 1.297-1.274h.293c.707 0 1.297.579 1.297 1.274 0 .694-.59 1.274-1.297 1.274h-.293z"/>
	</symbol>
	<symbol id="call" viewBox="0 0 32 32">

		<g filter="url(#call-a)">
			<path fill="none" d="M16 0C7.729 0 1 6.73 1 15s6.729 15 15 15c1.359 0 2.705-.181 4.13-.586a6.605 6.605 0 0 0 3.762-7.498l.03-.03c.439-.437.636-1.281.44-1.871l-.084-.256c-.197-.59-.85-1.205-1.45-1.37l-2.217-.606c-.6-.163-1.458.057-1.9.498l-.801.802a8.518 8.518 0 0 1-5.99-5.99l.802-.803c.44-.44.66-1.296.497-1.899l-.605-2.217c-.163-.6-.781-1.253-1.371-1.45l-.253-.085c-.591-.197-1.435.002-1.875.443l-1.2 1.202c-.215.212-.352.822-.352.824a14.191 14.191 0 0 0 4.149 10.18 14.178 14.178 0 0 0 10.146 4.148c.009 0 .148-.031.312-.08.012 1.843-1.034 3.566-2.669 4.297a13.158 13.158 0 0 1-3.501.472C8.764 28.125 2.875 22.236 2.875 15S8.764 1.875 16 1.875 29.125 7.764 29.125 15c0 2.157-.513 4.22-1.525 6.13a.939.939 0 0 0 1.657.88A15.03 15.03 0 0 0 31 15c0-8.27-6.729-15-15-15z" mask="url(&quot;#call-b&quot;)"/>
			<path fill="#4c3f00" fill-opacity=".31" d="M16 0C7.729 0 1 6.73 1 15s6.729 15 15 15c1.359 0 2.705-.181 4.13-.586a6.605 6.605 0 0 0 3.762-7.498l.03-.03c.439-.437.636-1.281.44-1.871l-.084-.256c-.197-.59-.85-1.205-1.45-1.37l-2.217-.606c-.6-.163-1.458.057-1.9.498l-.801.802a8.518 8.518 0 0 1-5.99-5.99l.802-.803c.44-.44.66-1.296.497-1.899l-.605-2.217c-.163-.6-.781-1.253-1.371-1.45l-.253-.085c-.591-.197-1.435.002-1.875.443l-1.2 1.202c-.215.212-.352.822-.352.824a14.191 14.191 0 0 0 4.149 10.18 14.178 14.178 0 0 0 10.146 4.148c.009 0 .148-.031.312-.08.012 1.843-1.034 3.566-2.669 4.297a13.158 13.158 0 0 1-3.501.472C8.764 28.125 2.875 22.236 2.875 15S8.764 1.875 16 1.875 29.125 7.764 29.125 15c0 2.157-.513 4.22-1.525 6.13a.939.939 0 0 0 1.657.88A15.03 15.03 0 0 0 31 15c0-8.27-6.729-15-15-15z"/>
		</g>
		<path fill="#fff" d="M16 0C7.729 0 1 6.73 1 15s6.729 15 15 15c1.359 0 2.705-.181 4.13-.586a6.605 6.605 0 0 0 3.762-7.498l.03-.03c.439-.437.636-1.281.44-1.871l-.084-.256c-.197-.59-.85-1.205-1.45-1.37l-2.217-.606c-.6-.163-1.458.057-1.9.498l-.801.802a8.518 8.518 0 0 1-5.99-5.99l.802-.803c.44-.44.66-1.296.497-1.899l-.605-2.217c-.163-.6-.781-1.253-1.371-1.45l-.253-.085c-.591-.197-1.435.002-1.875.443l-1.2 1.202c-.215.212-.352.822-.352.824a14.191 14.191 0 0 0 4.149 10.18 14.178 14.178 0 0 0 10.146 4.148c.009 0 .148-.031.312-.08.012 1.843-1.034 3.566-2.669 4.297a13.158 13.158 0 0 1-3.501.472C8.764 28.125 2.875 22.236 2.875 15S8.764 1.875 16 1.875 29.125 7.764 29.125 15c0 2.157-.513 4.22-1.525 6.13a.939.939 0 0 0 1.657.88A15.03 15.03 0 0 0 31 15c0-8.27-6.729-15-15-15z"/>
	</symbol>
	<symbol id="chat" viewBox="0 0 33 28">

		<g filter="url(#chat-a)">
			<path fill="none" d="M32 10.859c0 3.119-1.381 6.081-3.745 8.131v1.727c0 2.264-1.496 3.295-2.886 3.295-.6 0-1.516-.193-2.46-1.11l-1.244-1.211a11.2 11.2 0 0 1-4.663-.68l-.322.38a8.901 8.901 0 0 1-7.16 3.141l-.364.355c-.944.918-1.86 1.111-2.46 1.111-1.39 0-2.885-1.031-2.885-3.295v-.51A8.619 8.619 0 0 1 1 15.854c0-4.79 3.973-8.686 8.857-8.686.065 0 .128.002.192.006l.462.009C12.051 2.998 16.14 0 20.928 0 27.032 0 31.999 4.871 32 10.86zm-17.025 9.148c-3.074-1.932-5.117-5.31-5.118-9.148 0-.515.04-1.02.11-1.515-.037 0-.073-.006-.11-.006-3.669 0-6.643 2.917-6.643 6.515 0 2.198 1.112 4.136 2.81 5.316v1.534c0 1.194.708 1.483 1.573.642l1.11-1.08a6.682 6.682 0 0 0 6.267-2.258z" mask="url(&quot;#chat-b&quot;)"/>
			<path fill="#4c3f00" fill-opacity=".31" d="M32 10.859c0 3.119-1.381 6.081-3.745 8.131v1.727c0 2.264-1.496 3.295-2.886 3.295-.6 0-1.516-.193-2.46-1.11l-1.244-1.211a11.2 11.2 0 0 1-4.663-.68l-.322.38a8.901 8.901 0 0 1-7.16 3.141l-.364.355c-.944.918-1.86 1.111-2.46 1.111-1.39 0-2.885-1.031-2.885-3.295v-.51A8.619 8.619 0 0 1 1 15.854c0-4.79 3.973-8.686 8.857-8.686.065 0 .128.002.192.006l.462.009C12.051 2.998 16.14 0 20.928 0 27.032 0 31.999 4.871 32 10.86zm-17.025 9.148c-3.074-1.932-5.117-5.31-5.118-9.148 0-.515.04-1.02.11-1.515-.037 0-.073-.006-.11-.006-3.669 0-6.643 2.917-6.643 6.515 0 2.198 1.112 4.136 2.81 5.316v1.534c0 1.194.708 1.483 1.573.642l1.11-1.08a6.682 6.682 0 0 0 6.267-2.258z"/>
		</g>
		<path fill="#fff" d="M32 10.859c0 3.119-1.381 6.081-3.745 8.131v1.727c0 2.264-1.496 3.295-2.886 3.295-.6 0-1.516-.193-2.46-1.11l-1.244-1.211a11.2 11.2 0 0 1-4.663-.68l-.322.38a8.901 8.901 0 0 1-7.16 3.141l-.364.355c-.944.918-1.86 1.111-2.46 1.111-1.39 0-2.885-1.031-2.885-3.295v-.51A8.619 8.619 0 0 1 1 15.854c0-4.79 3.973-8.686 8.857-8.686.065 0 .128.002.192.006l.462.009C12.051 2.998 16.14 0 20.928 0 27.032 0 31.999 4.871 32 10.86zm-17.025 9.148c-3.074-1.932-5.117-5.31-5.118-9.148 0-.515.04-1.02.11-1.515-.037 0-.073-.006-.11-.006-3.669 0-6.643 2.917-6.643 6.515 0 2.198 1.112 4.136 2.81 5.316v1.534c0 1.194.708 1.483 1.573.642l1.11-1.08a6.682 6.682 0 0 0 6.267-2.258z"/>
		<path fill="#fadb44" d="M16 9a2 2 0 1 1 0 4 2 2 0 0 1 0-4zm5 0a2 2 0 1 1 0 4 2 2 0 0 1 0-4zm5 0a2 2 0 1 1 0 4 2 2 0 0 1 0-4z"/>
	</symbol>
	<symbol id="close" viewBox="0 0 212.982 212.982">
		<path fill-rule="evenodd" d="M131.804 106.491l75.936-75.936c6.99-6.99 6.99-18.323 0-25.312-6.99-6.99-18.322-6.99-25.312 0L106.491 81.18 30.554 5.242c-6.99-6.99-18.322-6.99-25.312 0-6.989 6.99-6.989 18.323 0 25.312l75.937 75.936-75.937 75.937c-6.989 6.99-6.989 18.323 0 25.312 6.99 6.99 18.322 6.99 25.312 0l75.937-75.937 75.937 75.937c6.989 6.99 18.322 6.99 25.312 0 6.99-6.99 6.99-18.322 0-25.312l-75.936-75.936z" clip-rule="evenodd"/>
	</symbol>
	<symbol id="experience" viewBox="0 0 62 60">
		<path d="M11.375 5.24c.627-1.852 2.785-3.564 2.785-3.564s.672 2.682.046 4.534a5.488 5.488 0 0 1-.263.638c.204-.084.417-.159.64-.22 1.876-.51 4.492.337 4.492.337s-1.836 2.059-3.711 2.57c-1.827.496-3.572-.065-3.77-.494-.404-.293-.814-2.04-.219-3.802zm5.207-.7c-.259-.406.563-2.282 2.326-3.415C20.67-.008 23.628.014 23.628.014s-1.226 2.708-2.988 3.841c-1.763 1.132-3.8 1.093-4.058.686zM5.835 11.923C6.185 9.78 8.236 7.51 8.236 7.51s1.222 2.812.873 4.953a6.457 6.457 0 0 1-.172.748c.208-.13.427-.251.66-.359 1.961-.903 4.978-.457 4.978-.457s-1.636 2.59-3.596 3.494c-1.908.879-3.919.586-4.215.153-.495-.246-1.262-2.084-.929-4.12zm-4.222 8.214c-.279-2.575 1.36-5.845 1.36-5.845s2.298 2.84 2.576 5.414c.033.31.045.615.04.912a7.25 7.25 0 0 1 .645-.621c1.967-1.67 5.578-2.126 5.578-2.126s-1.059 3.503-3.026 5.173c-1.915 1.625-4.32 1.935-4.798 1.53-.648-.121-2.112-1.988-2.375-4.437zm-.884 9.42C-.367 27.3.125 23.805.125 23.805s3.091 1.854 4.187 4.108c.106.218.194.438.274.657.13-.296.28-.593.459-.885 1.32-2.144 4.586-3.708 4.586-3.708s.133 3.526-1.187 5.67c-1.113 1.807-2.89 2.833-3.727 2.938-.065.115-.137.198-.213.233-.535.244-2.68-1.007-3.775-3.262zm2.59 9.609C1.56 37.438.79 34.027.79 34.027s3.41.684 5.17 2.41c.17.167.325.342.473.518.013-.318.045-.645.105-.976C6.977 33.545 9.36 31 9.36 31s1.339 3.227.899 5.662c-.37 2.05-1.607 3.6-2.32 3.977-.019.129-.055.23-.11.288-.394.406-2.748-.036-4.51-1.761zm9.136 7.996c-.27.398-2.495.495-4.46-.54-1.965-1.034-3.394-3.595-3.394-3.595s3.233-.107 5.198.927c.194.103.37.216.544.33a5.078 5.078 0 0 1-.12-.803c-.124-2.016 1.487-4.493 1.487-4.493s1.905 2.308 2.03 4.325c.104 1.704-.686 3.165-1.251 3.595.011.107.005.197-.034.254zm3.088 5.211c-1.777-.316-3.643-2.07-3.643-2.07s2.352-1 4.129-.682c.175.031.34.078.505.125a5.112 5.112 0 0 1-.342-.643c-.73-1.661-.327-4.197-.327-4.197s2.137 1.405 2.867 3.067c.617 1.404.497 2.856.217 3.377.042.086.065.165.055.223-.073.41-1.684 1.119-3.46.8zm9.804.97c.047.386-1.283 1.449-3.062 1.643-1.779.194-4.049-.865-4.049-.865s1.952-1.521 3.731-1.715c.176-.02.347-.023.516-.026a4.968 4.968 0 0 1-.507-.48c-1.164-1.283-1.498-3.65-1.498-3.65s2.428.679 3.592 1.961c.984 1.085 1.28 2.41 1.161 2.95.064.064.11.127.116.183zm17.6-46.376s2.617-.847 4.492-.337c.223.061.436.136.64.22a5.411 5.411 0 0 1-.263-.639c-.626-1.851.045-4.533.045-4.533s2.16 1.712 2.785 3.563c.596 1.76.186 3.508-.218 3.8-.199.43-1.944.99-3.77.494-1.876-.51-3.711-2.568-3.711-2.568zM38.394.014s2.957-.022 4.72 1.111c1.762 1.133 2.584 3.009 2.326 3.416-.259.407-2.295.447-4.058-.686C39.62 2.722 38.394.014 38.394.014zm14.03 12.838c.233.108.453.23.661.359-.07-.24-.13-.49-.172-.748-.35-2.141.872-4.953.872-4.953s2.051 2.27 2.401 4.412c.334 2.036-.433 3.874-.928 4.12-.296.433-2.307.727-4.215-.153-1.96-.904-3.596-3.494-3.596-3.494s3.016-.446 4.978.457zm4.01 7.765a7.522 7.522 0 0 1 .04-.912c.279-2.575 2.576-5.414 2.576-5.414s1.639 3.27 1.36 5.845c-.263 2.448-1.727 4.315-2.375 4.438-.478.404-2.883.094-4.799-1.531-1.967-1.67-3.026-5.173-3.026-5.173s3.611.457 5.578 2.126c.233.197.448.406.646.621zm4.859 8.939c-1.095 2.255-3.241 3.507-3.775 3.262-.077-.035-.148-.118-.214-.233-.837-.105-2.614-1.131-3.727-2.938-1.32-2.144-1.186-5.67-1.186-5.67s3.265 1.564 4.586 3.708c.18.292.33.589.459.885.08-.22.168-.439.274-.657 1.096-2.254 4.187-4.108 4.187-4.108s.491 3.496-.604 5.75zm-5.23 6.88c1.76-1.726 5.17-2.41 5.17-2.41s-.77 3.412-2.531 5.138c-1.762 1.726-4.115 2.168-4.508 1.762-.057-.059-.092-.16-.11-.289-.714-.378-1.95-1.926-2.321-3.978-.439-2.433.898-5.662.898-5.662s2.384 2.547 2.824 4.981c.06.332.092.657.105.975.147-.176.301-.349.472-.516zm1.358 6.59s-1.43 2.562-3.394 3.597c-1.966 1.034-4.19.936-4.46.538-.039-.057-.046-.147-.035-.254-.563-.43-1.355-1.891-1.25-3.595.124-2.017 2.03-4.325 2.03-4.325s1.61 2.477 1.486 4.493a5 5 0 0 1-.119.803c.174-.114.35-.227.544-.33 1.965-1.034 5.198-.926 5.198-.926zm-7.298 7.278s-1.866 1.753-3.643 2.07c-1.777.318-3.39-.39-3.462-.802-.01-.058.014-.135.055-.222-.28-.521-.4-1.974.218-3.378.73-1.662 2.867-3.067 2.867-3.067s.402 2.537-.328 4.198c-.1.23-.217.442-.342.642.164-.046.331-.093.506-.124 1.777-.318 4.129.683 4.129.683zm-10.069 2.1c1.779.194 3.731 1.715 3.731 1.715s-2.268 1.06-4.048.866c-1.779-.195-3.11-1.258-3.062-1.643.007-.055.051-.118.116-.184-.12-.54.177-1.864 1.16-2.948 1.165-1.283 3.593-1.96 3.593-1.96s-.334 2.365-1.498 3.649a5.147 5.147 0 0 1-.507.48c.17.002.34.006.515.025zM19.988 20.865v-4.56c0-.794.148-1.46.443-2 .295-.54.693-.98 1.196-1.322a5.168 5.168 0 0 1 1.736-.744 9.005 9.005 0 0 1 2.065-.231c.72 0 1.409.077 2.064.23a5.173 5.173 0 0 1 1.737.745c.502.341.901.782 1.196 1.322.295.54.442 1.206.442 2v.99a10.78 10.78 0 0 1-.458 3.157 16.339 16.339 0 0 1-1.164 2.843c-.47.892-.972 1.751-1.507 2.577a127.32 127.32 0 0 0-1.507 2.38c-.47.76-.858 1.493-1.164 2.198-.306.705-.459 1.388-.459 2.05h6.26v3.503h-10.88v-4.859c0-.705.153-1.399.459-2.082a13.63 13.63 0 0 1 1.163-2.066c.47-.694.972-1.41 1.508-2.148a28.01 28.01 0 0 0 1.507-2.314c.47-.804.857-1.657 1.163-2.561a9.015 9.015 0 0 0 .459-2.909c0-.33-.044-.672-.131-1.024-.088-.352-.317-.529-.688-.529-.372 0-.601.177-.688.529a4.246 4.246 0 0 0-.132 1.024v3.801zm12.124 0v-4.56c0-.794.148-1.46.443-2 .295-.54.693-.98 1.196-1.322a5.169 5.169 0 0 1 1.736-.744 9.006 9.006 0 0 1 2.065-.231c.72 0 1.409.077 2.064.23a5.172 5.172 0 0 1 1.737.745c.502.341.901.782 1.196 1.322.295.54.442 1.206.442 2v.99a10.78 10.78 0 0 1-.458 3.157 16.321 16.321 0 0 1-1.164 2.843c-.47.892-.972 1.751-1.507 2.577-.535.827-1.038 1.62-1.507 2.38-.47.76-.858 1.493-1.163 2.198-.307.705-.46 1.388-.46 2.05h6.26v3.503h-10.88v-4.859c0-.705.153-1.399.46-2.082a13.63 13.63 0 0 1 1.162-2.066 80.3 80.3 0 0 1 1.508-2.148 27.978 27.978 0 0 0 1.507-2.314c.47-.804.857-1.657 1.163-2.561a9.015 9.015 0 0 0 .46-2.909c0-.33-.045-.672-.132-1.024-.088-.352-.317-.529-.688-.529-.372 0-.601.177-.688.529a4.246 4.246 0 0 0-.131 1.024v3.801zM20.028 43.048v-2.505c0-.528-.014-1.141-.03-1.371h1.989c.5 0 .839-.023 1.067-.039v1.012a11.91 11.91 0 0 0-1.067-.031h-.891v2.934c0 .521.015 1.134.03 1.372h-1.127c.015-.238.03-.85.03-1.372zm6.33-3.976c1.532 0 2.687 1.218 2.687 2.72 0 1.502-1.155 2.72-2.687 2.72-1.516 0-2.68-1.218-2.68-2.72 0-1.502 1.164-2.72 2.68-2.72zm0 4.505c.906 0 1.613-.797 1.613-1.785 0-.988-.707-1.785-1.613-1.785-.905 0-1.605.797-1.605 1.785 0 .988.7 1.785 1.605 1.785zm8.597 2.42h-.913l.051-1.577h-3.342l.015 1.578h-.928l-.155-2.513c.148.015.405.015.634.015.117-.245.22-.475.36-.796l1.576-3.709h.316l1.554 3.709c.118.275.243.551.368.796.287 0 .508 0 .655-.015zm-2.592-5.07l-.971 2.573h1.928zm7.316 3.493a10.687 10.687 0 0 0-.25-.652l-.229-.567h-1.752l-.228.544c-.11.269-.184.468-.25.675h-1.127c.184-.337.383-.72.567-1.165l1.826-4.175h.294l1.878 4.175c.198.437.42.85.596 1.165zm-1.355-3.425l-.523 1.31h1.046zM31 53.983L34.017 57 31 60.017 27.983 57z"/>
	</symbol>
	<symbol id="facebook" viewBox="0 0 26 27">
		<path fill="#2986cc" d="M2.865 0h20.243C24.705 0 26 1.32 26 2.947V23.58c0 1.628-1.295 2.947-2.892 2.947h-4.074v-9.57h2.147l.483-4.029h-2.63v-1.666c0-.861.699-1.376 1.039-1.376h1.543V5.909l-2.873-.013c-3.189 0-4.023 2.824-4.023 4.632v2.4h-2.483v4.027h2.483v9.571H2.865c-1.597 0-2.892-1.32-2.892-2.947V2.947C-.027 1.32 1.268 0 2.865 0z"/>
	</symbol>
	<symbol id="odnoklassniki" viewBox="0 0 27 27">
		<path fill="#ff9000" d="M3.378 0h20.243c1.598 0 2.892 1.32 2.892 2.947V23.58c0 1.628-1.294 2.947-2.892 2.947H3.378c-1.597 0-2.892-1.32-2.892-2.947V2.947C.486 1.32 1.781 0 3.378 0zm15.906 16.035c0-.746-.558-1.35-1.247-1.35-.22 0-.415.078-.594.186-.02.008-.028-.01-.05.006-.836.564-2.37 1.497-3.898 1.497-1.566 0-3.083-.946-3.876-1.49-.022-.015-.026.006-.044 0a1.146 1.146 0 0 0-.612-.2c-.689 0-1.247.605-1.247 1.351 0 .47.236.865.572 1.106.013.02.023.039.051.057.778.53 2.387 1.453 4.105 1.755L8.951 22.74a1.4 1.4 0 0 0-.38.964c0 .745.558 1.348 1.244 1.348.34 0 .646-.149.87-.388l.004.005 2.786-3.02 2.785 3.02.004-.005c.225.24.53.388.87.388.687 0 1.244-.603 1.244-1.348 0-.38-.147-.72-.38-.964l-3.483-3.777c1.758-.294 3.394-1.247 4.17-1.779.019-.013.01-.027.023-.04.339-.242.576-.637.576-1.109zm-.004-7.187c0-3.26-2.588-5.9-5.78-5.9s-5.78 2.64-5.78 5.9c0 3.258 2.588 5.9 5.78 5.9s5.78-2.642 5.78-5.9zm-2.77 0c0 1.697-1.347 3.073-3.01 3.073-1.663 0-3.01-1.376-3.01-3.073 0-1.698 1.347-3.074 3.01-3.074 1.663 0 3.01 1.376 3.01 3.074z"/>
	</symbol>
	<symbol id="phone" viewBox="0 0 12.03 12.031">
		<path d="M10.75 9.374l-.06-.134c-.19-.442-2.47-1.111-2.65-1.125l-.15.013a3.258 3.258 0 0 0-1.17.83.366.366 0 0 1-.43.054 10.537 10.537 0 0 1-2.21-1.861 8.546 8.546 0 0 1-1.43-2.29.4.4 0 0 1 .11-.415 2.481 2.481 0 0 0 .99-1.232c.01-.188-.38-2.557-.79-2.785l-.12-.08a1.494 1.494 0 0 0-1.1-.335 1.3 1.3 0 0 0-.31.12A4 4 0 0 0 .08 1.486a9.632 9.632 0 0 0 2.49 7.351 8.57 8.57 0 0 0 6.66 3.173h.01l.04-.014a3.969 3.969 0 0 0 1.5-1.192 1.3 1.3 0 0 0-.03-1.43zM9.03 3.031h3v2h-3v-2zm-3.28 1L9.03 1.34v5.382z"/>
	</symbol>
	<symbol id="question" viewBox="0 0 6 12">
		<path fill="#a4a8b6" d="M.018 2.584V.343c.504-.052 1.242-.35 2.376-.35 2.285 0 3.617 1.26 3.617 3.168 0 1.384-.702 2.574-2.448 3.694.09.596.216 1.068.288 1.349H1.386c-.037-.35-.163-.823-.414-2.049 1.674-1.05 2.357-1.68 2.357-2.608 0-.753-.576-1.418-1.62-1.418-.63 0-1.277.192-1.691.455zM2.772 9.2c.791 0 1.457.63 1.457 1.401 0 .77-.666 1.4-1.457 1.4-.793 0-1.44-.63-1.44-1.4 0-.77.647-1.4 1.44-1.4z"/>
	</symbol>
	<symbol id="search" viewBox="0 0 12 12">
		<path fill="#445569" fill-rule="evenodd" d="M1.4 1.434a4.71 4.71 0 0 1 6.78 0 5.011 5.011 0 0 1 0 6.954 4.71 4.71 0 0 1-6.78 0 5.011 5.011 0 0 1 0-6.954zM2.65 2.72a2.965 2.965 0 0 1 4.27 0 3.155 3.155 0 0 1 0 4.383 2.965 2.965 0 0 1-4.27 0 3.155 3.155 0 0 1 0-4.383zm7.22 7.091a1.2 1.2 0 0 1 1.7.158 1.263 1.263 0 0 1 .15 1.739 1.187 1.187 0 0 1-1.69-.158 1.274 1.274 0 0 1-.16-1.739zM7.25 8.705L8.8 7.124l2.54 2.608-1.54 1.581z" opacity=".5"/>
	</symbol>
	<symbol id="tel" viewBox="0 0 12 12">
		<path fill="#a4a8b6" d="M10.75 10.776c-.225.281-.808.937-1.496 1.192l-.04.013h-.013c-.503.107-3.905-.027-6.659-3.173C-.238 5.634-.145 1.872.054 1.457.384.8 1.113.292 1.404.105c.092-.054.198-.094.304-.121.437-.094.834.16 1.1.335l.118.08c.41.228.808 2.598.795 2.785-.027.321-.318.616-.993 1.232a.402.402 0 0 0-.106.415c.291.763.913 1.714 1.43 2.29.476.535 1.43 1.419 2.21 1.86a.356.356 0 0 0 .424-.053c.595-.522.9-.776 1.178-.83l.146-.013c.185.013 2.462.683 2.647 1.124l.066.134c.16.335.437.937.027 1.433zM12 3v2H9v1.691L5.721 4 9 1.309V3z"/>
	</symbol>
	<symbol id="time" viewBox="0 0 10 10">
		<path fill="#737787" d="M0 5c0-2.757 2.243-5 5-5s5 2.243 5 5-2.243 5-5 5-5-2.243-5-5zm1.04 0A3.965 3.965 0 0 0 5 8.96 3.965 3.965 0 0 0 8.96 5 3.965 3.965 0 0 0 5 1.04 3.965 3.965 0 0 0 1.04 5zm6.41 1.022H4.062V2.819a.625.625 0 0 1 1.25 0v1.953h2.14a.625.625 0 0 1 0 1.25z"/>
	</symbol>
	<symbol id="to_come" viewBox="0 0 13 11">
		<path fill="#a4a8b6" d="M12.747 9.85c-.37-.725-2.176-1.203-3.376-1.653-1.2-.45-1.036-.722-1.08-1.095a2.244 2.244 0 0 1-.012-.161c.412-.31.749-.733.967-1.222l.015-.033a3.27 3.27 0 0 0 .122-.33c.275-.047.435-.301.496-.536.062-.095.19-.33.161-.595-.038-.343-.2-.5-.383-.567v-.06c0-.435-.048-1.062-.142-1.475a2.178 2.178 0 0 0-.09-.34c-.177-.505-.547-.96-1.043-1.278C7.871.175 7.148.002 6.506.002c-.642 0-1.365.174-1.876.503-.496.319-.866.773-1.043 1.278-.04.112-.07.227-.09.34-.094.412-.142 1.04-.142 1.476v.054c-.188.063-.358.22-.397.571-.03.266.099.5.16.596.063.239.228.498.512.538.035.114.077.225.123.333l.01.02.004.01c.222.497.568.927.99 1.237-.003.05-.006.098-.012.144-.043.372.083.645-1.117 1.095-1.2.45-3.006.928-3.376 1.652-.37.724-.222 1.15-.222 1.15h12.938s.149-.426-.221-1.15z"/>
	</symbol>
	<symbol id="to_register" viewBox="0 0 13 13">
		<path fill="#a4a8b6" d="M13 .15v12.702c0 .082-.062.148-.138.148h-8.52c-.076 0-.137-.066-.137-.148v-1.658c0-.082.061-.148.137-.148h6.844v-9.09H4.342c-.076 0-.137-.066-.137-.148V.15c0-.082.061-.148.137-.148h8.52c.076 0 .138.066.138.148zM5.304 9.79V7.845H.137C.061 7.845 0 7.779 0 7.697V5.305c0-.082.061-.148.137-.148h5.167V3.212a.15.15 0 0 1 .073-.131.129.129 0 0 1 .141.008l4.541 3.289a.15.15 0 0 1 .06.123.152.152 0 0 1-.06.123l-4.54 3.289a.128.128 0 0 1-.141.008.15.15 0 0 1-.074-.131z"/>
	</symbol>
	<symbol id="vk" viewBox="0 0 26 27">
		<path fill="#4ca5e7" d="M2.892 0h20.243c1.597 0 2.892 1.32 2.892 2.947V23.58c0 1.628-1.295 2.947-2.892 2.947H2.892C1.295 26.526 0 25.206 0 23.58V2.947C0 1.32 1.295 0 2.892 0zm16.44 13.74c-.605-.59-1.41-.98-2.416-1.172v-.08c.7-.263 1.248-.676 1.645-1.236.398-.56.597-1.2.597-1.92 0-.619-.145-1.167-.432-1.642-.289-.474-.724-.853-1.307-1.138a5.636 5.636 0 0 0-1.734-.519c-.616-.082-1.522-.123-2.717-.123H7.215v14.73h6.518c1.13 0 2.062-.092 2.794-.277a5.977 5.977 0 0 0 2.018-.93c.518-.363.93-.82 1.236-1.375.306-.554.46-1.196.46-1.93 0-1.001-.303-1.798-.909-2.388zm-4.516-2.815c-.124.245-.35.436-.678.575a2.566 2.566 0 0 1-.87.207c-.28.013-.77.02-1.47.02h-.515V8.61h.285c.729 0 1.277.005 1.646.016.368.01.687.067.957.173.284.112.493.293.628.544.135.25.203.494.203.732 0 .323-.062.606-.186.85zm.957 6.09c-.172.28-.443.493-.815.637a3.765 3.765 0 0 1-1.247.268c-.408.013-1.144.02-2.209.02h-.219v-3.69h.755c.73 0 1.31.005 1.744.015.434.01.775.057 1.023.143.408.132.714.326.918.583.205.257.307.614.307 1.069 0 .356-.086.674-.257.954z"/>
	</symbol>
	<symbol id="warranty" viewBox="0 0 60 58">
		<path d="M17.988 26.865v-4.56c0-.794.148-1.46.443-2 .295-.54.693-.98 1.196-1.322a5.168 5.168 0 0 1 1.736-.744 9.005 9.005 0 0 1 2.065-.231c.72 0 1.409.077 2.064.23a5.173 5.173 0 0 1 1.737.745c.502.341.901.782 1.196 1.322.295.54.442 1.206.442 2v.99a10.78 10.78 0 0 1-.458 3.157 16.339 16.339 0 0 1-1.164 2.843c-.47.892-.972 1.751-1.507 2.578-.536.826-1.038 1.619-1.507 2.38-.47.76-.858 1.492-1.164 2.197-.306.705-.459 1.388-.459 2.05h6.26v3.503h-10.88v-4.859c0-.705.153-1.399.459-2.082a13.63 13.63 0 0 1 1.163-2.066c.47-.694.972-1.41 1.508-2.148a28.01 28.01 0 0 0 1.507-2.314c.47-.804.857-1.657 1.163-2.561a9.015 9.015 0 0 0 .459-2.909c0-.33-.044-.671-.131-1.024-.088-.352-.317-.529-.688-.529-.372 0-.601.177-.688.529a4.246 4.246 0 0 0-.132 1.024v3.801zM41.972 36.613c0 .857-.144 1.622-.434 2.295a5.04 5.04 0 0 1-1.178 1.709 4.842 4.842 0 0 1-1.738 1.046c-.664.233-1.37.35-2.119.35a6.48 6.48 0 0 1-2.156-.35 4.842 4.842 0 0 1-1.738-1.046 5.04 5.04 0 0 1-1.177-1.709c-.29-.673-.435-1.438-.435-2.295V23.479c0-.857.145-1.629.435-2.314a5.012 5.012 0 0 1 1.177-1.727 5.083 5.083 0 0 1 1.738-1.065 6.192 6.192 0 0 1 2.156-.368c1.618 0 2.934.478 3.948 1.433 1.014.955 1.521 2.302 1.521 4.04zm-3.899-13.318c0-.49-.15-.875-.45-1.157-.302-.281-.681-.423-1.138-.423-.482 0-.879.142-1.191.423-.314.282-.47.667-.47 1.157v13.428c0 .49.156.876.47 1.157.312.282.71.422 1.19.422.458 0 .837-.14 1.138-.422.3-.281.451-.667.451-1.157z"/>
		<path d="M55.027 19.76L47.9 12.692V6.804h7.127zm4.352 11.543c-.82.812-2.33.812-3.149 0l-.525-.52v25.649c0 .65-.917 1.56-1.573 1.56H54V58H5v-.074c-.595-.22-1.241-.949-1.241-1.494v-25.13c-.82.814-2.33.814-3.149 0-.82-.812-.82-2.309 0-3.12L28.42.604c.82-.813 2.329-.813 3.15 0L59.379 28.18c.819.813.819 2.31 0 3.122zm-6.842-3.988L37.701 11.599l-8.193-6.59L6.83 27.507c-.432.802-.828 1.622-.828 1.939V55.32c0 .212-.054.451-.108.68h47.105a1.304 1.304 0 0 1-.005-.122V28.887c0-.298-.213-.936-.457-1.572z"/>
		<path d="M23.826 46.425a149.31 149.31 0 0 0-1.593 3.598c-.143.336-.278.656-.376.942h-.85c.215-.337.447-.824.644-1.278l2.13-4.674h.161l2.13 4.674c.215.454.448.941.672 1.278h-.958c-.09-.27-.242-.64-.412-1.051-.51-1.169-1.029-2.304-1.548-3.489zm5.293-.656v1.833h.707c.609 0 1.119-.008 1.396-.025v.622a27.67 27.67 0 0 0-1.396-.025h-.707v2.219h.787c.618 0 1.244-.008 1.513-.025v.622a32.602 32.602 0 0 0-1.513-.025h-1.548c.018-.463.036-1.127.036-1.505v-2.758c0-.58-.018-1.244-.036-1.496h1.477c.617 0 1.235-.017 1.512-.034v.631c-.277-.025-.895-.034-1.512-.034zm7.342-.563c.617 0 1.27-.008 1.548-.025v.622a31.79 31.79 0 0 0-1.548-.034h-.627c-.009.311-.009.74-.009 1.085v2.606c0 .571.009 1.244.036 1.505h-.797c.018-.261.027-.934.027-1.505v-2.606c0-.345-.009-.774-.027-1.085h-.617c-.609 0-1.253.017-1.53.034v-.622c.277.017.921.025 1.53.025z"/>
		<path fill="none" d="M23.826 46.425a149.31 149.31 0 0 0-1.593 3.598c-.143.336-.278.656-.376.942h-.85c.215-.337.447-.824.644-1.278l2.13-4.674h.161l2.13 4.674c.215.454.448.941.672 1.278h-.958c-.09-.27-.242-.64-.412-1.051-.51-1.169-1.029-2.304-1.548-3.489zm5.293-.656v1.833h.707c.609 0 1.119-.008 1.396-.025v.622a27.67 27.67 0 0 0-1.396-.025h-.707v2.219h.787c.618 0 1.244-.008 1.513-.025v.622a32.602 32.602 0 0 0-1.513-.025h-1.548c.018-.463.036-1.127.036-1.505v-2.758c0-.58-.018-1.244-.036-1.496h1.477c.617 0 1.235-.017 1.512-.034v.631c-.277-.025-.895-.034-1.512-.034zm7.342-.563c.617 0 1.27-.008 1.548-.025v.622a31.79 31.79 0 0 0-1.548-.034h-.627c-.009.311-.009.74-.009 1.085v2.606c0 .571.009 1.244.036 1.505h-.797c.018-.261.027-.934.027-1.505v-2.606c0-.345-.009-.774-.027-1.085h-.617c-.609 0-1.253.017-1.53.034v-.622c.277.017.921.025 1.53.025z"/>
	</symbol>
</svg>